<?xml version="1.0" encoding="UTF-8"?>
<!--
Licensed to the Apache Software Foundation (ASF) under one
or more contributor license agreements.  See the NOTICE file
distributed with this work for additional information
regarding copyright ownership.  The ASF licenses this file
to you under the Apache License, Version 2.0 (the
"License"); you may not use this file except in compliance
with the License.  You may obtain a copy of the License at

   http://www.apache.org/licenses/LICENSE-2.0

Unless required by applicable law or agreed to in writing,
software distributed under the License is distributed on an
"AS IS" BASIS, WITHOUT WARRANTIES OR CONDITIONS OF ANY
KIND, either express or implied.  See the License for the
specific language governing permissions and limitations
under the License.
-->
<svg width="15" height="14" viewBox="0 0 15 14" fill="none" xmlns="http://www.w3.org/2000/svg">
<g clip-path="url(#clip0_12227_27866)">
<path d="M7 13L7.5 12.25H6.5L7 13ZM7 7L6.5 7.75003H7.5L7 7ZM6.5 7H7.5V13H6.5V7Z" fill="#BFC0C4"/>
<path d="M12.451 7.625C11.4985 7.625 10.7263 8.39725 10.7263 9.3498C10.7263 10.3024 11.4985 11.0746 12.451 11.0746C13.4034 11.0746 14.1756 10.3024 14.1756 9.3498C14.1756 9.1233 14.131 8.89901 14.0443 8.68976C13.9576 8.4805 13.8306 8.29037 13.6704 8.13022C13.5103 7.97005 13.3202 7.84299 13.1109 7.7563C12.9017 7.66961 12.6774 7.625 12.451 7.625ZM12.451 10.0396C12.3103 10.0389 12.1729 9.99653 12.0563 9.91773C11.9398 9.83893 11.8492 9.72729 11.7962 9.59696C11.7431 9.46663 11.73 9.32348 11.7584 9.18567C11.7868 9.04785 11.8555 8.92157 11.9557 8.82284C12.0559 8.72412 12.1832 8.65735 12.3213 8.63098C12.4595 8.6046 12.6024 8.61981 12.7319 8.67467C12.9968 8.78692 13.1676 9.04804 13.165 9.33562C13.165 9.52467 13.0896 9.70615 12.9557 9.83943C12.8894 9.90545 12.8107 9.95771 12.7241 9.9932C12.6375 10.0287 12.5448 10.0467 12.4512 10.0462V10.0396H12.451Z" fill="#BFC0C4"/>
<path d="M12.0717 7.28711H12.8304V7.71837H12.0717V7.28711ZM10.7376 8.15506L11.274 7.61841L11.5788 7.92325L11.0424 8.4599L10.7376 8.15506ZM10.4059 9.70878V8.94976H10.8371V9.70878H10.4059ZM11.2735 11.0465L10.7372 10.5096L11.0417 10.2048L11.5786 10.7417L11.2735 11.0465ZM12.8339 11.3783H12.0752V10.947H12.8339V11.3783ZM14.1647 10.5103L13.6279 11.0472L13.3231 10.7421L13.8597 10.2053L14.1647 10.5103ZM14.5 8.95331V9.71232H14.0688V8.95331H14.5ZM13.6326 7.61912L14.169 8.15577L13.8639 8.46084L13.3275 7.92419L13.6326 7.61912Z" fill="#BFC0C4"/>
<path d="M1.75 3.8577L6.9881 0.714844L12.75 3.8577M1.75 3.8577L6.9881 7.52437M1.75 3.8577V10.1434L6.9881 13.2863M12.75 3.8577L6.9881 7.52437M12.75 3.8577V7.00056M6.9881 7.52437V13.2863M6.9881 13.2863L10.6548 11.191" stroke="#BFC0C4" stroke-width="1.04762"/>
</g>
<defs>
<clipPath id="clip0_12227_27866">
<rect width="14" height="14" fill="white" transform="translate(0.5)"/>
</clipPath>
</defs>
</svg>
